<?xml version="1.0" encoding="UTF-8"?>
<svg width="512pt" height="512pt" version="1.1" viewBox="0 0 512 512" xmlns="http://www.w3.org/2000/svg">
 <path fill="#ffffff" d="m434.38 25.602h-356.75c-28.688 0-52.023 23.336-52.023 52.027v364.51c0 16.363 8.9648 31.32 23.395 39.035 17.773 9.4922 39.723 5.7891 53.391-9.0117l2.8867-3.1289c4.3867-4.7617 10.375-7.3789 16.852-7.3789 6.4727 0 12.457 2.6172 16.852 7.3711 7.1328 7.7266 17.254 12.156 27.777 12.156 10.516 0 20.633-4.4336 27.762-12.156 4.3945-4.7578 10.379-7.3711 16.852-7.3711 6.4727 0 12.461 2.6172 16.855 7.3711 7.1328 7.7227 17.25 12.156 27.766 12.156s20.645-4.4336 27.777-12.16c4.3945-4.7578 10.375-7.3711 16.852-7.3711 6.4727 0 12.457 2.6172 16.844 7.3672l2.9141 3.1484c8.5742 9.3164 20.453 14.234 32.512 14.234 7.1016 0 14.266-1.7109 20.848-5.2266 13.953-7.4609 22.719-21.699 23.289-37.422 0.11719-0.52344 0.1875-1.0586 0.1875-1.6172l0.003906-312.48h37.16c28.688 0 52.023-23.336 52.023-52.023s-23.336-52.027-52.023-52.027zm-52.027 415.76-0.078125 0.76953c0 10.871-5.9531 20.801-15.543 25.926-11.809 6.3125-26.379 3.8555-35.457-5.9766l-2.9141-3.1484c-7.1328-7.7227-17.25-12.148-27.766-12.148s-20.641 4.4336-27.77 12.16c-4.3945 4.7578-10.379 7.3711-16.852 7.3711s-12.461-2.6172-16.855-7.3711c-7.1328-7.7266-17.254-12.156-27.77-12.156-10.512 0-20.633 4.4297-27.77 12.156-4.3867 4.7578-10.367 7.3711-16.844 7.3711-6.4727 0-12.461-2.6172-16.852-7.3711-7.1328-7.7227-17.254-12.156-27.77-12.156s-20.641 4.4336-27.777 12.16l-2.8828 3.1289c-9.082 9.832-23.664 12.293-35.461 5.9805-9.5859-5.1211-15.539-15.055-15.539-25.922v-364.51c0-20.492 16.672-37.16 37.16-37.16 20.492 0 37.16 16.672 37.16 37.16 0 28.688 23.336 52.023 52.023 52.023h215.54l0.003906 311.71zm52.027-326.57h-267.56c-20.492 0-37.16-16.672-37.16-37.16 0-14.551-6.0195-27.711-15.684-37.16h320.41c20.492 0 37.16 16.672 37.16 37.16-0.003906 20.492-16.672 37.16-37.164 37.16z"/>
</svg>
