<?xml version="1.0" encoding="UTF-8"?>
<svg width="512pt" height="512pt" version="1.1" viewBox="0 0 512 512" xmlns="http://www.w3.org/2000/svg">
 <path fill="#ffffff" d="m34.461 210.36c4.2383-7.8594 11.48-15.121 17.539-21.762 2.4219-3.0195 4.8398-6.0391 6.6406-9.6797 1.1992 0 1.8203 0 3.0195-0.60156 15.719-9.0586 31.441-12.082 49.559-12.082 10.281 0 10.879-16.32 0-16.32-13.301 0-26 1.8203-38.68 5.4414 15.719-27.801 30.219-56.219 51.977-80.398 26-29.02 58.641-31.441 94.898-36.262 0.60156 0.60156 1.8203 0.60156 3.0195 0.60156 29.02-1.8203 52.598 20.559 70.117 41.699 6.6406 7.8594 18.141-3.6211 11.48-11.48-10.879-12.699-23.582-26-38.078-34.461 11.48 0.60156 23.582 3.0195 34.461 9.6797 15.121 9.0586 26.602 23.582 38.078 36.262 13.898 15.719 26 32.039 38.68 48.359l3.0195 3.0195c32.039 21.762 71.941 32.039 88.258 69.52-11.48-9.6797-25.379-16.922-38.078-22.98-32.039-15.121-58.039-7.8594-81.602 16.922-7.2617 7.8594 4.2383 19.34 11.48 11.48 9.0586-9.6797 18.738-18.738 32.641-21.16 11.48-1.1992 22.98 3.6211 33.238 8.4609 18.738 9.0586 45.34 24.781 52.598 45.941 0.60156 1.1992 0.60156 2.4219 1.8203 3.0195 3.6211 27.801 1.8203 56.219-3.6211 83.422-7.8594 38.68-26.602 68.922-57.422 93.699-24.781 19.941-53.801 35.059-84.02 44.738-1.1992-0.60156-3.0195-1.8203-4.8398-1.8203-21.16-1.1992-35.059-27.199-52.598-36.262 24.781-31.441 30.219-70.719 42.32-108.8 10.281-33.238 43.52-68.301 28.422-105.18-12.082-32.039-63.477-37.48-91.281-46.539-19.941-6.0391-36.879-18.738-57.422-22.359-20.559-3.6211-42.32 3.6211-62.859 4.8398-10.879 1.1992-10.879 17.539 0 16.32 16.32-1.1992 32.641-4.8398 48.961-5.4414 19.34-1.1992 34.461 9.6797 51.977 16.922 15.719 6.6406 32.641 10.879 48.961 15.719 15.121 4.2383 35.66 9.6797 45.34 23.582 10.879 15.719-1.1992 39.898-7.8594 54.398-7.2617 14.5-15.121 28.422-19.941 43.52-12.699 38.078-16.32 78.582-45.34 108.8-12.082 0.60156-25.379 4.8398-36.262 5.4414-18.141 0-27.801-6.6406-40.5-16.922-6.6406-5.4414-13.898-9.0586-22.359-7.8594-16.922 1.8203-26 20.559-36.262 33.238-10.879-12.699-18.141-28.422-26.602-42.922-9.6797-17.539-21.762-33.238-32.039-50.781-12.082-20.559-19.941-43.52-26.602-65.879-5.4414-21.762-15.121-45.941-4.2383-67.098zm299.82-39.898c1.8203 10.281 17.539 6.0391 15.719-4.2383-4.2383-23.582-13.301-45.34-24.781-65.879-5.4414-9.0586-19.34-1.1992-13.898 8.4609 10.879 19.34 19.34 39.898 22.98 61.66zm-148.1 297.4c-18.738-3.0195-35.66-7.8594-50.18-19.34 4.2383-4.8398 7.8594-10.281 11.48-15.719 3.0195-4.2383 6.6406-8.4609 10.879-11.48 7.2617-5.4414 14.5 3.0195 19.34 7.2617 16.922 14.5 34.461 17.539 56.219 15.719 8.4609-1.1992 16.922-3.0195 24.781-4.2383 1.8203 0.60156 4.2383 1.1992 6.0391 0 7.2617 1.1992 13.301 6.6406 19.34 11.48 8.4609 7.2617 15.719 15.719 25.379 21.16-40.5 9.0586-83.422 2.4219-123.32-4.8398zm-140.24-125.74c10.281 19.941 24.18 36.879 35.059 56.219 17.539 29.621 32.641 62.859 66.5 76.16 18.141 7.2617 38.68 10.281 58.039 12.699 20.559 3.0195 42.32 6.0391 63.477 6.6406 46.539 0.60156 94.301-18.141 134.2-41.699 38.68-23.582 68.922-55 84.02-98.539 15.121-45.34 15.719-98.539 1.8203-144.48-6.6406-20.559-16.922-38.68-34.461-51.379-20.559-15.121-43.52-24.781-64.68-38.68-24.18-32.039-49.559-69.52-84.02-90.68-30.82-18.141-67.703-7.8594-100.94-4.2383-18.738 2.4219-37.48 4.8398-55 12.082-19.941 7.8594-34.461 22.98-47.141 39.301-27.199 33.238-40.5 75.562-68.301 108.2-10.281 12.082-18.738 23.582-21.16 39.898-3.0195 20.559 6.0391 42.922 11.48 62.859 4.8398 19.34 12.699 38.078 21.16 55.617z"/>
</svg>
