<?xml version="1.0" encoding="UTF-8"?>
<svg width="512pt" height="512pt" version="1.1" viewBox="0 0 512 512" xmlns="http://www.w3.org/2000/svg">
 <path fill="#ffffff" d="m96.398 20.961 159.6 208 159.6-208c2.5586-3.3594 7.3789-4 10.738-1.4414 12.68 9.7578 11.961 32.961 4.6602 58.879-8.7188 30.961-26.719 67.043-40.879 85.5l-92.023 119.92 7.3203 9.5195c1.3398 1.7617 1.8203 3.9414 1.4609 5.9609l-3.5 26.641 13.34 17.379 21.102-16.18c8.1406-6.0586 18-8.3008 27.398-7.0781 9.3984 1.2383 18.34 5.9805 24.641 13.941l2.3008 2.9805c14.738-4.3398 30.301-4.3008 44.781-0.14062 15.922 4.5781 30.582 14.121 41.461 28.281 13.48 17.539 18.539 38.898 15.859 59.238-2.6797 20.359-13.121 39.699-30.68 53.16-17.539 13.461-38.898 18.539-59.238 15.859-20.34-2.6797-39.68-13.121-53.16-30.68l-65.762-85.699-19.898-25.961-9.4805-12.34-9.4805 12.34-0.23828 0.32031-19.66 25.641-65.762 85.699c-13.48 17.559-32.82 28.02-53.16 30.68-20.34 2.6797-41.699-2.3984-59.238-15.859-17.559-13.48-28.02-32.801-30.68-53.16-2.6797-20.34 2.3984-41.699 15.859-59.238 10.859-14.16 25.52-23.699 41.461-28.281 14.48-4.1406 30.059-4.1992 44.781 0.14062l1.8984-2.4805c6.3203-8.2383 15.461-13.16 25.039-14.422s19.641 1.1211 27.879 7.4414l20.641 15.84 13.34-17.379-3.5-26.641c-0.35938-2.0195 0.10156-4.1992 1.4609-5.9609l7.3203-9.5195-92.023-119.92c-14.16-18.461-32.16-54.559-40.879-85.52-7.3008-25.922-8.0195-49.121 4.6602-58.859 3.3594-2.5586 8.1797-1.9219 10.738 1.4414zm25.66 359.6 0.96094 0.73828c8.8203 6.9805 14.059 16.84 15.418 27.18 1.3594 10.359-1.1602 21.262-7.8789 30.262l-0.71875 0.94141c-6.9805 8.8203-16.84 14.059-27.18 15.441-10.539 1.3789-21.621-1.2383-30.699-8.2188-9.1016-6.9805-14.539-17.02-15.922-27.578-1.3594-10.379 1.1602-21.262 7.8789-30.262l0.71875-0.94141c6.9805-8.8008 16.82-14.059 27.18-15.418s21.238 1.1602 30.238 7.8789zm-8.9609 12.441c-5.7383-4.3398-12.699-6-19.301-5.1406-6.6602 0.87891-12.961 4.3008-17.379 10.039l-0.039063 0.058593c-4.3984 5.7383-6.0586 12.738-5.1797 19.359 0.87891 6.6406 4.3008 12.98 10.039 17.379 5.7617 4.4219 12.781 6.0781 19.441 5.2188 6.6602-0.87891 12.961-4.3008 17.379-10.039l0.039062-0.058594c4.3984-5.7383 6.0586-12.738 5.1797-19.359-0.87891-6.6406-4.3008-12.961-10.039-17.379l-0.10156-0.10156zm96.66-19.238-17.699-13.578-0.16016-0.12109h-0.019532l-26.539-20.359c-4.8984-3.7617-10.898-5.1797-16.582-4.4414-5.6797 0.76172-11.102 3.6797-14.84 8.5586l-5.2188 6.8008c-2.1602 2.8398-5.918 3.7383-9.0781 2.4219-13.059-4.8008-27.238-5.1992-40.359-1.4219-12.859 3.6992-24.699 11.398-33.461 22.801-10.898 14.219-15.02 31.52-12.859 47.961 2.1602 16.441 10.621 32.059 24.801 42.961 14.219 10.922 31.52 15.02 47.961 12.879 16.441-2.1602 32.078-10.621 42.961-24.801l61.102-79.621zm19.918-25.941-11.621-8.9219-10.578 13.801 11.621 8.9219zm35.961-106.26 22.781 29.699 89.496-116.64c13.219-17.238 30.078-51.121 38.301-80.34 4-14.199 6.0586-26.922 4.6211-35l-155.22 202.3zm-19.301 84.562-22.781-29.699-2.8789 3.7383 3.1406 23.801 15.199 11.68 7.3203-9.5391zm143.58 54.461c8.9805-6.7188 19.898-9.2383 30.238-7.8789 10.559 1.3789 20.602 6.8008 27.578 15.922 6.9805 9.1016 9.6016 20.16 8.2188 30.699-1.3789 10.559-6.8008 20.578-15.922 27.578-9.1016 6.9805-20.16 9.6016-30.699 8.2188-10.359-1.3594-20.219-6.6211-27.18-15.441l-0.71875-0.94141c-6.7188-8.9805-9.2383-19.879-7.8789-30.262 1.3594-10.359 6.6016-20.219 15.418-27.18zm28.262 7.3203c-6.6406-0.87891-13.621 0.78125-19.359 5.1797l-0.058593 0.039063c-5.7383 4.3984-9.1602 10.719-10.039 17.379-0.87891 6.6406 0.78125 13.621 5.1797 19.359l0.039062 0.058594c4.3984 5.7383 10.719 9.1602 17.379 10.039 6.6602 0.87891 13.66-0.80078 19.441-5.2188 5.7383-4.3984 9.1602-10.719 10.039-17.379 0.87891-6.6602-0.80078-13.66-5.1992-19.441-4.3984-5.7383-10.738-9.1602-17.379-10.039zm-98.098-27.82-0.16016 0.12109-17.699 13.578 61.102 79.621c10.898 14.199 26.52 22.66 42.961 24.801 16.461 2.1602 33.738-1.9609 47.961-12.859 14.199-10.898 22.641-26.52 24.801-42.961 2.1602-16.461-1.9609-33.738-12.859-47.961-8.7812-11.422-20.621-19.121-33.461-22.801-13.121-3.7617-27.301-3.3789-40.359 1.4219-3.1406 1.3398-6.9219 0.44141-9.0781-2.4219l-5.2383-6.8203c-3.7383-4.8789-9.1602-7.7812-14.82-8.5391-5.6602-0.73828-11.602 0.66016-16.461 4.3398l-26.66 20.441zm-26.141-21.18-11.621 8.9219 10.578 13.801 11.621-8.9219zm-2.6211-38.699-41.219-53.699-0.33984-0.46094-158.64-206.74c-1.4414 8.0781 0.62109 20.801 4.6211 35 8.2383 29.238 25.078 63.141 38.301 80.34l95.402 124.34 0.10156 0.16016 0.10156 0.14062 0.10156 0.16016 32.102 41.82 0.10156 0.16016 0.10156 0.14062 0.10156 0.16016 10.719 13.961 15.199-11.66 3.1406-23.801z"/>
</svg>
